<svg width="16" height="16" viewBox="0 0 16 16" fill="none" xmlns="http://www.w3.org/2000/svg">
  <rect width="16" height="16" rx="3" fill="url(#gradient1)"/>
  <path d="M4 6C4 5.44772 5.44772 4 6 4H10C10.5523 4 12 5.44772 12 6V7C12 7.27614 11.7761 7.5 11.5 7.5C11.2239 7.5 11 7.27614 11 7V6C11 5.72386 10.7761 5.5 10.5 5.5H6C5.72386 5.5 5.5 5.72386 5.5 6V10C5.5 10.2761 5.72386 10.5 6 10.5H7C7.27614 10.5 7.5 10.7239 7.5 11C7.5 11.2761 7.27614 11.5 7 11.5H6C4.44772 11.5 4 10.5523 4 10V6Z" fill="white"/>
  <rect x="8" y="7.5" width="3.5" height="3.5" rx="0.5" fill="white"/>
  <circle cx="9.75" cy="9.25" r="0.75" fill="url(#gradient1)"/>
  <defs>
    <linearGradient id="gradient1" x1="0" y1="0" x2="16" y2="16" gradientUnits="userSpaceOnUse">
      <stop stop-color="#2563eb"/>
      <stop offset="1" stop-color="#06b6d4"/>
    </linearGradient>
  </defs>
</svg>
